<?xml version="1.0" encoding="iso-8859-1"?>
<!-- Generator: Adobe Illustrator 17.1.0, SVG Export Plug-In . SVG Version: 6.00 Build 0)  -->
<!DOCTYPE svg PUBLIC "-//W3C//DTD SVG 1.1//EN" "http://www.w3.org/Graphics/SVG/1.1/DTD/svg11.dtd">
<svg version="1.1" id="Capa_1" xmlns="http://www.w3.org/2000/svg" xmlns:xlink="http://www.w3.org/1999/xlink" x="0px" y="0px"
	 viewBox="0 0 210.517 210.517" style="enable-background:new 0 0 210.517 210.517;" xml:space="preserve">
<path d="M176.842,32.941c0,2.209-1.791,4-4,4h-72.647c-2.209,0-4-1.791-4-4s1.791-4,4-4h72.647
	C175.051,28.941,176.842,30.732,176.842,32.941z M163.458,58.067l-62.057-19.639c-2.106-0.669-4.354,0.501-5.021,2.606
	c-0.667,2.106,0.5,4.354,2.606,5.021l62.057,19.639c0.401,0.127,0.809,0.188,1.208,0.188c1.697,0,3.273-1.089,3.813-2.794
	C166.732,60.981,165.565,58.733,163.458,58.067z M100.194,27.641c0.399,0,0.807-0.061,1.208-0.188l62.057-19.639
	c2.106-0.667,3.273-2.914,2.606-5.021c-0.666-2.105-2.914-3.273-5.021-2.606L98.988,19.826c-2.106,0.667-3.273,2.914-2.606,5.021
	C96.92,26.551,98.495,27.641,100.194,27.641z M116.931,100.912H33.675v82.75h83.256V100.912z M33.675,191.662v14.855
	c0,2.209,1.791,4,4,4h75.256c2.209,0,4-1.791,4-4v-14.855H33.675z M112.931,76.517h-1.653
	c-4.968-13.761-17.464-23.505-31.975-25.034v-7.419h1.625c2.209,0,4-1.791,4-4v-15.25c0-2.209-1.791-4-4-4h-11.25
	c-2.209,0-4,1.791-4,4v15.25c0,2.209,1.791,4,4,4h1.625v7.419c-14.51,1.529-27.007,11.272-31.975,25.034h-1.653
	c-2.209,0-4,1.791-4,4v12.395h83.256V80.517C116.931,78.308,115.14,76.517,112.931,76.517z"/>
<g>
</g>
<g>
</g>
<g>
</g>
<g>
</g>
<g>
</g>
<g>
</g>
<g>
</g>
<g>
</g>
<g>
</g>
<g>
</g>
<g>
</g>
<g>
</g>
<g>
</g>
<g>
</g>
<g>
</g>
</svg>
