<svg xmlns="http://www.w3.org/2000/svg" viewBox="0 0 32 32">
  <path stroke="#000000" stroke-width="2" stroke-miterlimit="10" d="M16.5,5L4,17.3l10.9,10.9l-8-8.1l7.4-7.4c0.3-0.3,0.9-0.3,1.2,0l6.8,6.8c0.3,0.3,0.3,0.9,0,1.2l-7.4,7.4 l2.8,2.8l12.4-12.4L16.5,5z"/>
  <path fill="none" stroke="#000000" stroke-width="2" stroke-miterlimit="10" d="M16.5,7.6V1"/>
  <path stroke="#000000" stroke-width="3" stroke-miterlimit="10" d="M3.7,20c0,0-1.8,2.1-1.8,3.8c0,0.9,0.8,1.7,1.7,1.7c0,0,0,0,0.1,0c0.9,0,1.7-0.7,1.7-1.6c0,0,0,0,0-0.1 C5.4,22.2,3.7,20,3.7,20z"/>
</svg>
