<?xml version="1.0" encoding="UTF-8" standalone="no"?>
<!DOCTYPE svg PUBLIC "-//W3C//DTD SVG 1.1//EN" "http://www.w3.org/Graphics/SVG/1.1/DTD/svg11.dtd">
<svg version="1.1" xmlns="http://www.w3.org/2000/svg" xmlns:xlink="http://www.w3.org/1999/xlink" preserveAspectRatio="xMidYMid meet" viewBox="0 0 640 640" width="320" height="320"><defs><path d="M98.38 92.43L524.32 92.43L524.32 474.05L98.38 474.05L98.38 92.43Z" id="a3udcyX3Dg"></path><path d="M282.7 407.03C282.7 418.07 291.66 427.03 302.7 427.03C310.16 427.03 312.54 427.03 320 427.03C331.05 427.03 340 418.07 340 407.03C340 353.51 340 212.97 340 159.46C340 148.41 331.05 139.46 320 139.46C312.54 139.46 310.16 139.46 302.7 139.46C291.66 139.46 282.7 148.41 282.7 159.46C282.7 212.97 282.7 353.51 282.7 407.03Z" id="d56xeGGagE"></path><path d="M435.14 254.59C446.18 254.59 455.14 263.55 455.14 274.59C455.14 282.05 455.14 284.43 455.14 291.89C455.14 302.94 446.18 311.89 435.14 311.89C381.62 311.89 241.08 311.89 187.57 311.89C176.52 311.89 167.57 302.94 167.57 291.89C167.57 284.43 167.57 282.05 167.57 274.59C167.57 263.55 176.52 254.59 187.57 254.59C241.08 254.59 381.62 254.59 435.14 254.59Z" id="a13x0BXHnV"></path></defs><g><g><g><use xlink:href="#a3udcyX3Dg" opacity="0" fill="#ffffff" fill-opacity="1"></use><g><use xlink:href="#a3udcyX3Dg" opacity="0" fill-opacity="0" stroke="#615f5e" stroke-width="0" stroke-opacity="1"></use></g></g><g><g></g><use xlink:href="#d56xeGGagE" opacity="1" fill="#615f5e" fill-opacity="1"></use><g><use xlink:href="#d56xeGGagE" opacity="1" fill-opacity="0" stroke="#615f5e" stroke-width="0" stroke-opacity="1"></use></g><g></g></g><g><g></g><use xlink:href="#a13x0BXHnV" opacity="1" fill="#615f5e" fill-opacity="1"></use><g><use xlink:href="#a13x0BXHnV" opacity="1" fill-opacity="0" stroke="#615f5e" stroke-width="0" stroke-opacity="1"></use></g><g></g></g></g></g></svg>